#!OML:ASF H:\Terrain\Patient Classification 1\Terrain2\Thursday\justin.ASF
:FULLY-SPECIFIED
:DEGREES
1827
root 5.73424 17.6348 20.5953 861.295 -75.6484 -501.674
lowerback 5.28221 3.03023 9.62996
upperback 3.00577 4.25363 3.97168
thorax 0.583231 2.12636 -1.43624
lowerneck -13.6994 0.72148 -7.8163
upperneck 34.6793 1.51832 1.7481
head 14.0489 -0.560316 2.2126
rclavicle 3.61788e-014 2.62396e-014
rhumerus -24.3137 1.71899 -84.9976
rradius 33.718
rwrist -12.0283
rhand -19.3308 13.0781
rfingers 7.12502
rthumb 6.9858 -16.7866
lclavicle 3.61788e-014 2.62396e-014
lhumerus -38.5023 7.33493 81.6327
lradius 36.8117
lwrist 3.96751
lhand -16.4399 19.6111
lfingers 7.12502
lthumb 9.77578 49.3642
rfemur 19.2795 3.16349 30.7946
rtibia 14.837
rfoot -7.2505 4.41643
rtoes -10.6821
lfemur -27.5273 7.08764 -6.55434
ltibia 28.2525
lfoot 7.63453 0.695072
ltoes 4.05743
1828
root 5.58133 17.6195 20.6172 860.345 -75.6989 -500.654
lowerback 5.10003 2.98246 9.75303
upperback 2.90079 4.18092 4.04049
thorax 0.572829 2.08786 -1.42313
lowerneck -13.6734 0.698765 -7.72186
upperneck 34.8088 1.45315 1.71711
head 14.1065 -0.589402 2.17443
rclavicle 3.39922e-014 1.90833e-014
rhumerus -24.5787 0.733481 -84.5775
rradius 32.9874
rwrist -11.7141
rhand -18.7613 13.1845
rfingers 7.12502
rthumb 7.53554 -16.6612
lclavicle 3.39922e-014 1.90833e-014
lhumerus -38.5301 7.06013 81.9212
lradius 36.2237
lwrist 4.93597
lhand -17.6353 20.4867
lfingers 7.12502
lthumb 8.62234 50.2906
rfemur 18.8829 3.31393 30.9034
rtibia 16.4799
rfoot -7.3306 4.39768
rtoes -10.641
lfemur -26.9682 7.21365 -6.70199
ltibia 28.2563
lfoot 6.78472 -0.802108
ltoes 4.86852
1829
root 5.42798 17.6201 20.6397 861.441 -76.2181 -501.741
lowerback 4.93306 2.81616 9.11093
upperback 2.77229 3.93913 3.97826
thorax 0.463242 1.96012 -1.12851
lowerneck -13.6472 0.775786 -7.94654
upperneck 35.0324 1.5362 1.92061
head 14.1913 -0.572698 2.31094
rclavicle -3.93594e-014 -4.37326e-014
rhumerus -24.9084 0.134943 -84.3587
rradius 32.0629
rwrist -11.0835
rhand -19.5422 13.7728
rfingers 7.12502
rthumb 6.78173 -16.0986
lclavicle -3.93594e-014 -4.37326e-014
lhumerus -38.7538 7.2399 82.0119
lradius 35.6146
lwrist 5.26385
lhand -17.982 20.9019
lfingers 7.12502
lthumb 8.28766 50.7193
rfemur 18.6055 3.58706 30.2814
rtibia 17.8581
rfoot -7.06735 4.39143
rtoes -10.728
lfemur -26.4318 6.75692 -7.50414
ltibia 28.4197
lfoot 5.21706 -0.983539
ltoes 8.04408
1830
root 5.27438 17.6069 20.6613 861.741 -76.6506 -502.063
lowerback 4.74522 2.57544 8.53597
upperback 2.71725 3.58611 4.02074
thorax 0.437461 1.77877 -0.754081
lowerneck -13.6713 0.932258 -7.90656
upperneck 35.1565 1.78058 1.82087
head 14.2397 -0.486886 2.30175
rclavicle 4.05024e-014 -3.57812e-014
rhumerus -25.0963 -0.0812219 -84.2827
rradius 31.1261
rwrist -10.3399
rhand -21.1704 13.9632
rfingers 7.12502
rthumb 5.2098 -15.9528
lclavicle 4.05024e-014 -3.57812e-014
lhumerus -38.79 8.30686 81.6375
lradius 34.585
lwrist 3.97993
lhand -16.887 20.1167
lfingers 7.12502
lthumb 9.34435 49.8896
rfemur 18.3815 3.50673 29.8758
rtibia 19.2119
rfoot -7.00259 4.19169
rtoes -11.2053
lfemur -25.9062 6.05871 -7.99458
ltibia 28.5465
lfoot 3.57799 -1.00396
ltoes 9.21075
1831
root 5.10977 17.596 20.6853 859.988 -76.8499 -500.528
lowerback 4.67384 2.34259 8.53429
upperback 2.73032 3.26048 4.1866
thorax 0.457024 1.6131 -0.568708
lowerneck -13.5914 1.02075 -7.69019
upperneck 35.2264 1.9472 1.47707
head 14.2534 -0.442097 2.14774
rclavicle -9.59136e-015 -7.95139e-015
rhumerus -25.453 -0.739513 -83.9631
rradius 30.4418
rwrist -9.84386
rhand -21.554 13.7006
rfingers 7.12502
rthumb 4.83945 -16.2242
lclavicle -9.59136e-015 -7.95139e-015
lhumerus -38.6907 10.0701 80.7166
lradius 32.9942
lwrist 0.567076
lhand -13.4638 17.8477
lfingers 7.12502
lthumb 12.6461 47.4448
rfemur 18.2918 3.07901 29.9006
rtibia 20.7955
rfoot -6.98063 4.07049
rtoes -11.5546
lfemur -25.0515 5.32203 -7.86228
ltibia 28.4576
lfoot 2.28541 -1.1941
ltoes 12.1151
1832
root 4.93843 17.6068 20.713 860.545 -77.3463 -501.297
lowerback 4.57946 2.24765 8.09464
upperback 2.69246 3.12064 4.10564
thorax 0.437457 1.54257 -0.404937
lowerneck -13.5844 0.989436 -7.65184
upperneck 35.498 1.86785 1.46969
head 14.382 -0.491562 2.12804
rclavicle 7.07673e-014 3.4191e-014
rhumerus -26.0471 -2.13807 -83.4433
rradius 29.8276
rwrist -9.47793
rhand -20.825 13.8049
rfingers 7.12502
rthumb 5.54327 -16.1026
lclavicle 7.07673e-014 3.4191e-014
lhumerus -38.5501 11.1506 80.0943
lradius 31.4313
lwrist -1.66243
lhand -11.7826 16.4022
lfingers 7.12502
lthumb 14.2665 45.8922
rfemur 18.0226 2.42112 29.0161
rtibia 22.5065
rfoot -6.54202 4.45651
rtoes -12.0355
lfemur -24.1649 4.63806 -8.45183
ltibia 28.2264
lfoot 1.28329 -1.25879
ltoes 15.1869
